<svg xmlns="http://www.w3.org/2000/svg" viewBox="0 0 511.996 511.996" width="512" height="512"><path d="M448.001 447.996h-3.098l-47.688-74.188 69-69c2-2 3.128-4.705 3.128-7.529V129.383c0-2.828-1.128-5.539-3.128-7.539L347.501 3.122c-2-2-4.727-3.122-7.55-3.122H172.063a10.682 10.682 0 0 0-7.549 3.122L45.8 121.844c-2 2-3.123 4.711-3.123 7.539v167.896c0 2.824 1.123 5.529 3.123 7.529l69 69-47.687 74.188h-3.112c-17.638 0-31.995 14.344-31.995 32 0 17.646 14.357 32 31.995 32h64c17.657 0 32-14.354 32-32 0-12.912-7.657-24.039-18.672-29.098l19.779-30.785 3.407 3.412c2 2.01 4.721 3.127 7.549 3.127h167.888c2.823 0 5.55-1.117 7.55-3.127l3.401-3.412 19.784 30.785c-11.02 5.059-18.686 16.186-18.686 29.098 0 17.646 14.353 32 32 32h64c17.646 0 31.99-14.354 31.99-32 .001-17.656-14.344-32-31.99-32zm-53.784-101.344c.295-1.734.451-3.5.451-5.314 0-17.656-14.354-31.998-32-31.998-2.216 0-4.393.215-6.48.656l-38.216-59.451 121.873 50.48-45.628 45.627zm53.784-65.343l-149.756-62.024c.284-1.951.422-3.937.422-5.951 0-2.024-.138-4.01-.422-5.956l149.756-62.029v135.96zM343.697 29.5l96.147 96.138-149.764 62.039a43.208 43.208 0 0 0-8.422-8.416L343.697 29.5zm-19.696-8.167l-62.049 149.761a42.44 42.44 0 0 0-5.951-.432c-2.015 0-4 .157-5.941.432L188.03 21.333h135.971zm-89.328 192.001c0-11.77 9.578-21.338 21.328-21.338 11.765 0 21.343 9.568 21.343 21.338 0 11.755-9.578 21.328-21.343 21.328-11.75 0-21.328-9.573-21.328-21.328zm45.073 96.094a32.272 32.272 0 0 0-2.402-.088c-8.186 0-15.671 3.088-21.343 8.156a31.878 31.878 0 0 0-21.328-8.156c-.813 0-1.608.029-2.407.088l23.735-36.932 23.745 36.932zM168.315 29.5l62.03 149.761a43.381 43.381 0 0 0-8.407 8.416L72.176 125.638 168.315 29.5zM64.001 145.349l149.765 62.029a44.087 44.087 0 0 0-.422 5.956c0 2.015.157 4 .422 5.951L64.001 281.309v-135.96zm8.175 155.676l121.873-50.48-38.221 59.451a31.445 31.445 0 0 0-6.485-.656c-17.637 0-32 14.342-32 31.998 0 1.814.157 3.58.456 5.314l-45.623-45.627zm42.51 151.873a10.64 10.64 0 0 0-.387 10.873 10.66 10.66 0 0 0 9.357 5.568H128c5.892 0 10.672 4.773 10.672 10.656 0 5.873-4.78 10.646-10.672 10.646H64c-5.873 0-10.652-4.773-10.652-10.646 0-5.883 4.779-10.656 10.652-10.656h8.94c3.623 0 7-1.863 8.966-4.912l142.81-222.143c4.848 5.24 11 9.265 17.922 11.554l-127.952 199.06zm98.658-58.246c-5.892 0-10.671-4.783-10.671-10.656 0-5.883 4.779-10.656 10.671-10.656 5.873 0 10.657 4.773 10.657 10.656 0 5.873-4.784 10.656-10.657 10.656zm21.329-42.656c-5.878 0-10.672-4.785-10.672-10.658 0-5.891 4.794-10.686 10.672-10.686 5.887 0 10.672 4.795 10.672 10.686-.001 5.873-4.785 10.658-10.672 10.658zm21.328 42.656c-5.877 0-10.656-4.783-10.656-10.656 0-5.883 4.779-10.656 10.656-10.656 5.888 0 10.667 4.773 10.667 10.656 0 5.873-4.779 10.656-10.667 10.656zm21.343-42.656c-5.892 0-10.676-4.785-10.676-10.658 0-5.891 4.784-10.686 10.676-10.686 5.873 0 10.657 4.795 10.657 10.686 0 5.873-4.784 10.658-10.657 10.658zm21.324 42.656c-5.873 0-10.667-4.783-10.667-10.656 0-5.883 4.794-10.656 10.667-10.656 5.893 0 10.677 4.773 10.677 10.656 0 5.873-4.784 10.656-10.677 10.656zm149.333 95.991h-64c-5.883 0-10.657-4.773-10.657-10.646 0-5.883 4.774-10.656 10.657-10.656h4.353c3.911 0 7.5-2.148 9.362-5.568a10.65 10.65 0 0 0-.392-10.873l-127.95-199.06a42.873 42.873 0 0 0 17.94-11.554l142.795 222.142c1.971 3.049 5.344 4.912 8.971 4.912h8.922c5.882 0 10.666 4.773 10.666 10.656 0 5.873-4.784 10.647-10.667 10.647z" fill="#FFF"/></svg>