<svg xmlns="http://www.w3.org/2000/svg" xmlns:xlink="http://www.w3.org/1999/xlink" width="469.35" height="272.15" viewBox="0 0 469.35 272.15">
  <defs>
    <radialGradient id="Dégradé_sans_nom_2" data-name="Dégradé sans nom 2" cx="368.51" cy="97.27" r="49.35" gradientUnits="userSpaceOnUse">
      <stop offset="0" stop-color="#ff0008"/>
      <stop offset="1" stop-color="#c12012"/>
    </radialGradient>
    <linearGradient id="Dégradé_sans_nom_3" data-name="Dégradé sans nom 3" x1="345.4" y1="35.82" x2="370.12" y2="35.82" gradientUnits="userSpaceOnUse">
      <stop offset="0.05" stop-color="#c12012"/>
      <stop offset="0.32" stop-color="#ff0008"/>
      <stop offset="1" stop-color="#c12012"/>
    </linearGradient>
    <linearGradient id="Dégradé_sans_nom_5" data-name="Dégradé sans nom 5" x1="341.58" y1="181.97" x2="450.97" y2="181.97" gradientUnits="userSpaceOnUse">
      <stop offset="0" stop-color="#00b700"/>
      <stop offset="1" stop-color="#009000"/>
    </linearGradient>
  </defs>
  <g style="isolation: isolate">
    <g id="Calque_2" data-name="Calque 2">
      <g id="Logo">
        <path d="M421.13,248.43c7.69,1.19,25.51,1.5,48.22-14a45.17,45.17,0,0,1-27.23-9.2,37.8,37.8,0,0,1-8.63-8.1c-.32-.4-.49-.63-.49-.63a24,24,0,0,0,11-.33,25.66,25.66,0,0,0,5.31-1.9,48.67,48.67,0,0,0,14.9-11.14l-11.89-4.45a38,38,0,0,1-13.59-8.83c12.31-1,20.85-13.4,20.85-13.4l-10.28-4.4a33.11,33.11,0,0,1-14.84-12.86c7.32.39,16.21-5.74,16.21-5.74s-22.68-4.93-26.91-36.11a64,64,0,0,0-46.71-82.56l-1.95-19.53-1.93.19A22.74,22.74,0,0,0,368.34,6a15.82,15.82,0,0,0-26.45,2.65A22.65,22.65,0,0,0,339,18.9l-2.38.24,1.9,19a64.32,64.32,0,0,0-27.05,21.11H279.06v1.25c-.55-.15-1.11-.28-1.68-.4a39.25,39.25,0,0,0-8.27-.85c-1,0-2,0-2.95.09a43.11,43.11,0,0,0-5.82.79,42.06,42.06,0,0,0-5.64,1.57,43.08,43.08,0,0,0-7.93,3.81c-1,.6-2,1.27-3,2-1-.71-2-1.38-3-2a38.28,38.28,0,0,0-16.52-5c-1.21-.09-2.44-.14-3.62-.14a39.61,39.61,0,0,0-9.2,1l-11.5-.93L173.4,58.38l-1.18-.1a24.5,24.5,0,0,0,2.41-10.68,23.83,23.83,0,0,0-2.16-9.9,26.9,26.9,0,0,0-5.64-8.08,28.13,28.13,0,0,0-8.5-5.7,27.84,27.84,0,0,0-11.17-2.27h0a29.25,29.25,0,0,0-9.86,1.7,27.55,27.55,0,0,0-8.78,5,26.42,26.42,0,0,0-6.35,8c-.25.49-.49,1-.71,1.51a40.89,40.89,0,0,0-6.62-3.63,56.08,56.08,0,0,0-17.1-4.18c-2.12-.2-4.31-.3-6.51-.3h0a84,84,0,0,0-12.61,1l-.07,0h-.08l-49.6,8.23L17.13,41l1.8,11.72L32.31,139.9l-20.42,2.72L0,144.2l1.59,11.9,12.67,95.08,1.59,11.89,11.89-1.58,28.77-3.84,11.9-1.58-1.59-11.9-.75-5.66,5.79-.77,11.75-1.57,5.67-.76.75,5.67L91.62,253l11.89-1.58,28.77-3.84,11.9-1.58-1.59-11.9-.24-1.76a39.21,39.21,0,0,0,10.4,1.4c.64,0,1.29,0,1.93,0a39.23,39.23,0,0,0,8.64-1.35l10.86-.52,14.74-.71v5l0,12h49.55v-5.45q1,.72,2,1.35c.63.39,1.29.76,2,1.1a52.15,52.15,0,0,0,11,5,59,59,0,0,0,10.38,2.35c1.23.17,2.51.31,3.78.41l11.72,1,.49-4.79c1.15.47,2.34.9,3.55,1.29a52.78,52.78,0,0,0,16.2,2.45c.88,0,1.79,0,2.69-.06a74.39,74.39,0,0,0,30.54-7.6l8.38-4.22-2.08-9.14-.7-3.12,2.13.14c12.45,9,28.68,11.3,33.77,11.83a34.6,34.6,0,0,1-3.12,2.77L353.58,257l21.86,4.06,14.8,2.75,8.05,1.49,14.79,2.75,21.86,4.06-11.47-19A36.34,36.34,0,0,1,421.13,248.43Z"/>
        <g>
          <path d="M121,206.82a38,38,0,0,1-3.55-14.56,36.63,36.63,0,0,1,2.2-14.73,39.45,39.45,0,0,1,2.58-5.49L118,140.57l-28.77,3.84L72.18,193.7l-29.93-43-28.77,3.83,12.68,95.08,28.77-3.83L48.16,195l22.12,30.86L82,224.27l13.13-35.56,6.77,50.78,28.76-3.83-2.45-18.41A38.1,38.1,0,0,1,121,206.82Z" style="fill: #fff"/>
          <path d="M158.4,39.16a15.9,15.9,0,0,0-11.26-4.51,17.45,17.45,0,0,0-5.87,1,15.91,15.91,0,0,0-5,2.86,14.65,14.65,0,0,0-3.48,4.41,12.2,12.2,0,0,0-1.33,5.6,12.54,12.54,0,0,0,1.21,5.5A14.39,14.39,0,0,0,136,58.48a15.06,15.06,0,0,0,5,3,17.11,17.11,0,0,0,6.17,1.09,16.67,16.67,0,0,0,10.8-3.92,14.18,14.18,0,0,0,3.45-4.42,12.5,12.5,0,0,0,1.29-5.66,12.13,12.13,0,0,0-1.1-5A14.91,14.91,0,0,0,158.4,39.16Z" style="fill: #fff"/>
          <path d="M161.24,71.51,132,71.46l-.08,42.63a37.77,37.77,0,0,0,1.6,11.41,24.15,24.15,0,0,0,4.74,8.74,20.87,20.87,0,0,0,7.71,5.58,26.49,26.49,0,0,0,10.45,2l4.35-1,.48-6,1.41-17.43a6.72,6.72,0,0,1-1.46-4.61Z" style="fill: #fff"/>
          <path d="M334.69,204.93c0,.72,0,1.43,0,2.14s-.08,1.43-.16,2.1l-.44,3.51a92.61,92.61,0,0,0,12.86-2l1.71-26.52q.36-5.62,6.2-7.84t17.92-1.43l-2.38-21a19.69,19.69,0,0,0-11.85,2.81q-5.28,3.24-8.81,10.72l.84-12.94-26.77-1.73L322.26,177a32.89,32.89,0,0,1,2.51,2.36,34.37,34.37,0,0,1,7.2,11.71A45.5,45.5,0,0,1,334.69,204.93Z" style="fill: #fff"/>
          <path d="M291.06,86.58h0c-.15-.58-.33-1.15-.53-1.71a18.64,18.64,0,0,0-3.41-5.94,20.27,20.27,0,0,0-3.93-3.53,23,23,0,0,0-8.32-3.58,27.58,27.58,0,0,0-5.76-.58c-.73,0-1.45,0-2.16.07a30.53,30.53,0,0,0-4.2.56A29.88,29.88,0,0,0,253,75.73c-.88.54-1.71,1.12-2.52,1.73A32.37,32.37,0,0,0,241.46,88a34.85,34.85,0,0,0-4.23,17,36.5,36.5,0,0,0,.27,4.47,35.67,35.67,0,0,0,.8,4.29,32.91,32.91,0,0,0,1.35,4.11q.4,1,.87,2c.31.66.65,1.3,1,1.94a34.35,34.35,0,0,0,1.84,2.92c.49.7,1,1.38,1.53,2l.43.53a32.44,32.44,0,0,0,4.36,4.25,33.29,33.29,0,0,0,3.48,2.44,30.2,30.2,0,0,0,16.07,4.5q10,0,16.8-4.29a24,24,0,0,0,3.79-3,25.85,25.85,0,0,0,3.22-3.73h.7v11a.39.39,0,0,1,0,.11l-.11.41a8,8,0,0,1-2,3.45,8.26,8.26,0,0,1-1,.82l-.08.06a10.56,10.56,0,0,1-1.15.68.71.71,0,0,1-.15.08,10.9,10.9,0,0,1-1.29.57l-.21.08c-.46.17-.94.32-1.44.46l-.25.07c-.51.14-1.05.26-1.61.37l-.26,0c-.57.11-1.16.19-1.77.27l-.25,0c-.64.07-1.29.13-2,.17H280c-.71,0-1.44,0-2.2,0h-1.28c-.89,0-1.75,0-2.6,0l-1.39,0-1.48.05-1.33.08-1.41.1-1.26.13-1.34.16-1.19.17c-.43.07-.86.13-1.28.21l-1.13.22-1.22.25-1.07.26c-.39.09-.77.19-1.15.3l-1,.29-1.09.34-1,.33-1,.38-.9.36-1,.41-.85.39-.91.44-.8.41-.86.48-.74.43-.82.51-.69.45-.77.52-.64.47-.72.54-.6.48-.67.57-.56.48-.62.58c-.17.17-.35.33-.51.5l-.58.58-.48.5c-.19.2-.36.4-.54.6s-.3.33-.44.5l-.5.6-.4.49c-.16.2-.31.41-.46.61l-.37.48-.42.61-.34.48-.39.59-.3.47c-.13.2-.24.4-.36.6s-.19.3-.27.45-.23.39-.33.58-.17.29-.25.43l-.3.58c-.07.13-.15.27-.21.41l-.29.56-.18.37-.27.58-.15.32c-.09.19-.17.38-.25.56l-.12.28c-.09.2-.17.4-.25.59a1.54,1.54,0,0,0-.08.19c-.21.5-.4,1-.56,1.37l-.21.51a4.89,4.89,0,0,1-.19.46c-.14.33-.34.89-.57,1.65a75.19,75.19,0,0,0-2.71,18.65l-3.71,2.52.12-45.79L201,153.68l-.13,82.45h25.53V218.86l6-4a42.11,42.11,0,0,0,3.57,7.42,37.46,37.46,0,0,0,6.66,8.11,17.76,17.76,0,0,0,4,3.4,16,16,0,0,0,1.53.83,40,40,0,0,0,8.85,4.08,48.52,48.52,0,0,0,8.32,1.87c1,.14,2,.26,3.12.34l2.5-24.53a29,29,0,0,1-4.32-.58c-.43-.09-.83-.19-1.22-.3a18.55,18.55,0,0,1-2.11-.72c-.32-.13-.63-.27-.92-.42a12.48,12.48,0,0,1-2.84-1.87,12.33,12.33,0,0,1-2.14-2.43,18.37,18.37,0,0,1-2.42-5.31c-.19-.64-.36-1.31-.5-2-.07-.33-.14-.67-.2-1a39.06,39.06,0,0,1-.54-5.17c0-.69,0-1.38,0-2.06s0-1.35,0-2c0-1,.1-1.95.18-2.86,0-.61.11-1.2.18-1.76,0-.28.07-.56.1-.83.18-1.29.38-2.43.58-3.35a1.84,1.84,0,0,1,.05-.25c.11-.51.23-1,.33-1.31l.48-1.18c.09-.2.17-.41.26-.62a2.77,2.77,0,0,1,.1-.26,1.67,1.67,0,0,0,.08-.2c0-.08.07-.16.11-.25l.09-.21.11-.24a2.14,2.14,0,0,1,.1-.22c0-.08.07-.15.1-.23l.12-.23a1.51,1.51,0,0,1,.11-.22l.12-.24a2.12,2.12,0,0,0,.11-.21l.14-.24.12-.21.15-.24a2.39,2.39,0,0,1,.13-.21c0-.08.1-.16.16-.24l.14-.2a2,2,0,0,1,.17-.23l.15-.2.19-.24c0-.06.11-.12.16-.19l.21-.23.17-.18.23-.23.19-.18.24-.22.2-.17.27-.22.22-.17.28-.2.24-.16a3.28,3.28,0,0,1,.31-.2l.25-.16.34-.19.27-.14c.12-.06.24-.13.36-.18l.29-.14.38-.17.33-.13.4-.16.35-.12.43-.14.37-.11.46-.14.4-.1.49-.12.43-.09.52-.1.46-.08.54-.09.53-.07.84-.1.82-.08.5,0,.71-.05.54,0,.74,0h1.34l1.54,0,2.34,0,1.12,0,1.38,0,1.1-.06c.44,0,.89-.05,1.32-.09s.72-.06,1.08-.09l1.28-.14,1.05-.14,1.24-.18,1-.18,1.19-.23,1-.22,1.15-.29,1-.25,1.12-.34.92-.29c.37-.12.73-.25,1.09-.39s.59-.21.88-.33l1.05-.43.85-.37,1-.49.8-.4,1-.55.76-.43,1-.61c.23-.16.47-.3.71-.46l1-.69.64-.47c.34-.26.68-.54,1-.82.17-.14.34-.27.51-.42.49-.42,1-.85,1.43-1.3l0,0a31.95,31.95,0,0,0,8.08-13c.18-.53.33-1,.47-1.54.07-.25.13-.5.19-.74a28,28,0,0,0,.9-6.38v-11h0V71.24h-27.4Zm0,19.31a13.46,13.46,0,0,1-.35,2.49,13,13,0,0,1-.8,2.32,13.66,13.66,0,0,1-1.25,2.15,15.46,15.46,0,0,1-1.7,2,12.66,12.66,0,0,1-6.57,3.53,13.29,13.29,0,0,1-2.55.24c-.46,0-.9,0-1.33-.06A12.22,12.22,0,0,1,274,118a12.76,12.76,0,0,1-5.41-3.35,14,14,0,0,1-1.68-2,12.72,12.72,0,0,1-2.16-7.28,13.47,13.47,0,0,1,.54-3.85,12.62,12.62,0,0,1,2.4-4.47c.28-.34.58-.68.9-1s.65-.63,1-.92a12.71,12.71,0,0,1,3.25-2c.39-.16.78-.3,1.18-.42a12.22,12.22,0,0,1,2.52-.49c.43,0,.87-.06,1.33-.06a12.18,12.18,0,0,1,7,2.15c.35.24.69.5,1,.78s.67.58,1,.9a16.53,16.53,0,0,1,1.72,2,12.85,12.85,0,0,1,2.44,6.87Z" style="fill: #fff"/>
        </g>
        <path d="M45.13,144.31,30.79,50.92l49.6-8.22a66.29,66.29,0,0,1,16.19-.62A43.75,43.75,0,0,1,110,45.32a25.87,25.87,0,0,1,9.6,6.9,20.41,20.41,0,0,1,4.67,10.39q1.5,9.83-1.86,16.34t-11.69,9.12q9.06-.54,15.19,3.43l0,21.58a43.89,43.89,0,0,0,1.87,13.21,32.07,32.07,0,0,0,3,6.81,40,40,0,0,1-3.31,4,43.83,43.83,0,0,1-3.42,3.23l-.08-.58-.79-5.95-6,.8-28.76,3.83-3.67.49-1.21,3.5-4.25,12.27c-7.5.9-16,1.83-25,2.8l-7.15-10.27Zm50.92-39.73a15.63,15.63,0,0,0-5.48-1.65,24.42,24.42,0,0,0-6.68.17l-13.4,2.05,3.85,25c1.18-.13,2.32-.28,3.44-.45l3.2-.49,8.75-1.34a18.43,18.43,0,0,0,5.43-1.69,13.58,13.58,0,0,0,4.12-3.13,12,12,0,0,0,2.42-4.31,11.51,11.51,0,0,0,.32-5.23,12.89,12.89,0,0,0-2-5.45A11.17,11.17,0,0,0,96.05,104.58ZM64.69,66.3,68,87.92,80.34,86a19.8,19.8,0,0,0,5.44-1.61,14.53,14.53,0,0,0,4.13-2.82,10.13,10.13,0,0,0,2.41-3.8,9.24,9.24,0,0,0,.39-4.58q-1.68-11-15.39-8.86ZM207.1,92.19a10,10,0,0,1,5.31-1,8,8,0,0,1,3.85,1.18,7.47,7.47,0,0,1,2.48,2.66A10.86,10.86,0,0,1,220,99a21.7,21.7,0,0,1,.1,4.8l-2.87,35.61,27.64,2.23.48-5.94a38.24,38.24,0,0,1-4.56-4.53l-.4-.48-.11-.13c-.61-.75-1.2-1.53-1.8-2.4-.83-1.2-1.54-2.31-2.16-3.41-.41-.75-.81-1.52-1.18-2.28s-.72-1.56-1-2.35a39.27,39.27,0,0,1-1.59-4.85,40.17,40.17,0,0,1-1-5,42.58,42.58,0,0,1-.31-5.2,40.86,40.86,0,0,1,5-19.88,39.83,39.83,0,0,1,3.43-5.25,23.68,23.68,0,0,0-5-4,28.66,28.66,0,0,0-25.91-.73,27.68,27.68,0,0,0-10.87,10.77l1.09-13.44-26.49-2.13-5.24,65L195,137.57l2.81-34.84a15.73,15.73,0,0,1,1.71-3.59,19.9,19.9,0,0,1,3.2-3.91A16.55,16.55,0,0,1,207.1,92.19Zm121.6,113q0,.87,0,1.68a15.48,15.48,0,0,1-.11,1.56L290.78,215a10.93,10.93,0,0,0,5.23,6.19,18.05,18.05,0,0,0,9,1.57,46.35,46.35,0,0,0,18.51-5.26l3.83,16.89a62.35,62.35,0,0,1-25.66,6.32A41.71,41.71,0,0,1,287,238.91a34,34,0,0,1-11.59-6.3L277,217l.63-6.18-6.2-.41A23.9,23.9,0,0,1,268,210c-.3-.07-.6-.14-.88-.22a12.59,12.59,0,0,1-1.43-.49c-.2-.08-.39-.16-.57-.25s-.52-.28-.75-.43A31.57,31.57,0,0,1,266.54,196a31.13,31.13,0,0,1,7.08-10.67,33.6,33.6,0,0,1,10.86-7.11A39.58,39.58,0,0,1,298,175.31a31.22,31.22,0,0,1,12.92,1.9,25.9,25.9,0,0,1,9.49,6.29,28.26,28.26,0,0,1,5.94,9.67A39.37,39.37,0,0,1,328.7,205.19Zm-20-6.95q-2.52-7.83-10-7.51a9.43,9.43,0,0,0-4.18,1.11,9.1,9.1,0,0,0-3,2.71,11.77,11.77,0,0,0-1.78,4,18.46,18.46,0,0,0-.54,4.9Zm-138-39L195,158.11l-.09,60.68-21.34,1-.53-11.05a21.11,21.11,0,0,1-7.13,9.26,21.66,21.66,0,0,1-11.83,3.66,27,27,0,0,1-11.22-1.82,29.34,29.34,0,0,1-9.62-6.07,31.55,31.55,0,0,1-6.87-9.55,31.92,31.92,0,0,1-3-12.27,30.62,30.62,0,0,1,7.82-22.26,29.19,29.19,0,0,1,9-6.73,28,28,0,0,1,10.91-2.77,22.36,22.36,0,0,1,5.88.51,18.77,18.77,0,0,1,5.59,2.24,21,21,0,0,1,4.91,4.1,22.7,22.7,0,0,1,3.82,6.11Zm1.45,30.29a11.67,11.67,0,0,0-1.31-4.36,12.26,12.26,0,0,0-6.58-5.78,11,11,0,0,0-4.4-.69,11.66,11.66,0,0,0-4.7,1.19,12.2,12.2,0,0,0-3.65,2.74,11.72,11.72,0,0,0-2.35,3.87,11.45,11.45,0,0,0-.71,4.64,11.31,11.31,0,0,0,1.21,4.69,11.77,11.77,0,0,0,2.83,3.62,12.26,12.26,0,0,0,3.93,2.29,11.79,11.79,0,0,0,4.58.69,11.25,11.25,0,0,0,4.49-1.15,12.18,12.18,0,0,0,3.54-2.68,12.31,12.31,0,0,0,2.33-3.75,12.19,12.19,0,0,0,.84-4.39Z" style="fill: #ff0008"/>
        <path d="M363,45.24a51.94,51.94,0,0,0-41,20h2.46v62.21l0,4.74A52,52,0,1,0,363,45.24Z" style="fill: url(#Dégradé_sans_nom_2)"/>
        <circle cx="354.58" cy="92.29" r="28.39" style="fill: #fff"/>
        <path d="M372.92,145.82c1-5.18-7.24-11.14-18.43-13.32s-21.07.23-22.08,5.41a4.63,4.63,0,0,0,0,1.44,51.78,51.78,0,0,0,30.59,10,52.44,52.44,0,0,0,8.27-.66A5.23,5.23,0,0,0,372.92,145.82Z" style="fill: #cecece;mix-blend-mode: multiply"/>
        <ellipse cx="404.84" cy="96.25" rx="9.54" ry="22.59" style="fill: #cecece;mix-blend-mode: multiply"/>
        <g style="mix-blend-mode: multiply;opacity: 0.6000000000000001">
          <g>
            <path d="M161.25,114.14l-5.07-2.07c-8-3.26-16.05-6.56-24.28-9.66l0,11.68a37.77,37.77,0,0,0,1.6,11.41,24.15,24.15,0,0,0,4.74,8.74,20.87,20.87,0,0,0,7.71,5.58,26.49,26.49,0,0,0,10.45,2l4.35-1,.48-6,1.41-17.43A6,6,0,0,1,161.25,114.14Z" style="fill: #cecece;opacity: 0.49"/>
            <path d="M126.4,204.24a31.55,31.55,0,0,0,6.87,9.55,29.34,29.34,0,0,0,9.62,6.07,27,27,0,0,0,11.22,1.82A21.66,21.66,0,0,0,165.94,218a21.11,21.11,0,0,0,7.13-9.26l.53,11.05,21.34-1v-6a156.66,156.66,0,0,1-29.22-11.61l-.24.14a11.25,11.25,0,0,1-4.49,1.15,11.79,11.79,0,0,1-4.58-.69,12.26,12.26,0,0,1-3.93-2.29,11.77,11.77,0,0,1-2.83-3.62,11.44,11.44,0,0,1-1.2-4.53c-7.38-4.62-14.62-9.59-21.89-14.72a31.64,31.64,0,0,0-1.32,3A30.54,30.54,0,0,0,123.42,192,31.92,31.92,0,0,0,126.4,204.24Z" style="fill: #cecece"/>
            <path d="M201,167.44a148.26,148.26,0,0,0,24.48,5.46l.06-23.1L201,153.68Z" style="fill: #cecece;opacity: 0.49"/>
            <path d="M45.13,144.31l2,2.94,7.15,10.27c9-1,17.51-1.9,25-2.8l3-8.57a223.71,223.71,0,0,0-39.95-20Z" style="fill: #cecece"/>
            <path d="M195.8,127.1c-9.08-2.91-18.08-6.34-27.14-10l-1.47,18.19L195,137.57Z" style="fill: #cecece"/>
            <path d="M42.25,150.68l-28.77,3.83,2.95,22.12a222.36,222.36,0,0,1,22.38,3.54,198.36,198.36,0,0,1,30.25,9.05Z" style="fill: #cecece;opacity: 0.49"/>
            <path d="M256.67,135.78l.26.12a30.2,30.2,0,0,0,12.31,2.53q10,0,16.8-4.29a25,25,0,0,0,3.24-2.48c-9.08,1.67-18.92,3-29.76,3.9C258.56,135.65,257.61,135.71,256.67,135.78Z" style="fill: #cecece;opacity: 0.49"/>
            <path d="M291.06,86.58h0c-.15-.58-.33-1.15-.53-1.71a18.64,18.64,0,0,0-3.41-5.94,20.27,20.27,0,0,0-3.93-3.53,23,23,0,0,0-8.32-3.58,27.58,27.58,0,0,0-5.76-.58c-.73,0-1.45,0-2.16.07a30.53,30.53,0,0,0-4.2.56A29.88,29.88,0,0,0,253,75.73c-.88.54-1.71,1.12-2.52,1.73A32.37,32.37,0,0,0,241.46,88a34.85,34.85,0,0,0-4.23,17c0,.25,0,.5,0,.75,3.19.34,6.43.59,9.73.71,6.24.24,12.16.31,17.83.24,0-.43-.07-.86-.07-1.31a13.47,13.47,0,0,1,.54-3.85,12.62,12.62,0,0,1,2.4-4.47c.28-.34.58-.68.9-1s.65-.63,1-.92a12.71,12.71,0,0,1,3.25-2c.39-.16.78-.3,1.18-.42a12.22,12.22,0,0,1,2.52-.49c.43,0,.87-.06,1.33-.06a12.25,12.25,0,0,1,7,2.15c.35.24.69.5,1,.78s.67.58,1,.9a16.53,16.53,0,0,1,1.72,2,12.85,12.85,0,0,1,2.44,6.87V105a182.14,182.14,0,0,0,27.4-5.35V71.24h-27.4Z" style="fill: #cecece;opacity: 0.49"/>
            <path d="M212,216.41c-3.77-.55-7.44-1.26-11-2.09l0,21.81h25.53V218.86l.79-.52C222.34,217.83,217.27,217.19,212,216.41Z" style="fill: #cecece;opacity: 0.49"/>
            <path d="M178.56,158.9c5.42,2.4,10.89,4.61,16.46,6.56v-7.35Z" style="fill: #cecece"/>
            <path d="M128.39,218.36l-.15-1.11a37.75,37.75,0,0,1-10.81-25,36.63,36.63,0,0,1,2.2-14.73,37.62,37.62,0,0,1,2-4.41l-4.8-3.43c-9.54-6.83-19.22-13.74-29.34-20.26l-14.34,41.4c6.21,2.51,12.27,5.24,18.21,8.11l3.78-10.23,1.72,12.94c8.6,4.31,17,8.85,25.28,13.34Z" style="fill: #cecece;opacity: 0.49"/>
            <path d="M201.07,97a19.89,19.89,0,0,1,1.61-1.73,16.55,16.55,0,0,1,4.42-3,10,10,0,0,1,5.31-1,8,8,0,0,1,3.85,1.18,7.47,7.47,0,0,1,2.48,2.66A10.86,10.86,0,0,1,220,99a20.6,20.6,0,0,1,.16,3.81q5.44,1.29,11.1,2.16a40.92,40.92,0,0,1,5-19.83,39.83,39.83,0,0,1,3.43-5.25,23.68,23.68,0,0,0-5-4,28.66,28.66,0,0,0-25.91-.73,27.68,27.68,0,0,0-10.87,10.77l1.09-13.44-26.49-2.13-1.06,13.15A259.68,259.68,0,0,0,201.07,97Z" style="fill: #cecece"/>
            <path d="M323.52,217.52A46.35,46.35,0,0,1,305,222.78a18.05,18.05,0,0,1-9-1.57,10.48,10.48,0,0,1-4.79-5.16c-4.71,1-9.48,1.78-14.37,2.38l-1.44,14.18a34,34,0,0,0,11.59,6.3,39.21,39.21,0,0,0,9.88,1.78A192.5,192.5,0,0,0,326,228.63Z" style="fill: #cecece"/>
            <path d="M346.54,217.15l1.38-21.42Q341,199,334.45,201.79c.11,1,.19,2.09.24,3.14,0,.72,0,1.43,0,2.14s-.08,1.43-.16,2.1l-.55,4.4-4.37.77-.64.11.35,1.58Z" style="fill: #cecece;opacity: 0.49"/>
            <path d="M234.21,219c.55,1.12,1.15,2.23,1.81,3.31a37.46,37.46,0,0,0,6.66,8.11,17.76,17.76,0,0,0,4,3.4,16,16,0,0,0,1.53.83,40,40,0,0,0,8.85,4.08,48.52,48.52,0,0,0,8.32,1.87c1,.14,2,.26,3.12.34l2.22-21.84A217.69,217.69,0,0,1,234.21,219Z" style="fill: #cecece;opacity: 0.49"/>
            <path d="M323.19,162.5a202.11,202.11,0,0,0,19.55-8.5l-18.92-1.22Z" style="fill: #cecece;opacity: 0.49"/>
            <path d="M293.75,138.42a.39.39,0,0,1,0,.11l-.11.41a8,8,0,0,1-2,3.45,8.26,8.26,0,0,1-1,.82l-.08.06a10.56,10.56,0,0,1-1.15.68.71.71,0,0,1-.15.08,10.9,10.9,0,0,1-1.29.57l-.21.08c-.46.17-.94.32-1.44.46l-.25.07c-.51.14-1.05.26-1.61.37l-.26,0c-.57.11-1.16.19-1.77.27l-.25,0c-.64.07-1.29.13-2,.17H280c-.71,0-1.44,0-2.2,0h-1.28c-.89,0-1.75,0-2.6,0l-1.39,0-1.48.05-1.33.08-1.41.1-1.26.13-1.34.16-1.19.17c-.43.07-.86.13-1.28.21l-1.13.22-1.22.25-1.07.26c-.39.09-.77.19-1.15.3l-1,.29-1.09.34-1,.33-1,.38-.9.36-1,.41-.85.39-.91.44-.8.41-.86.48-.74.43-.82.51-.69.45-.77.52-.64.47-.72.54-.6.48-.67.57-.55.48-.63.58c-.17.17-.35.33-.51.5l-.58.58-.48.5c-.19.2-.36.4-.54.6s-.3.33-.44.5l-.5.6-.4.49c-.16.2-.31.41-.46.61l-.37.48-.42.61-.34.48-.39.59-.3.47c-.13.2-.24.4-.36.6s-.19.3-.27.45-.23.39-.33.58-.17.29-.25.43l-.3.58c-.07.13-.15.27-.21.41l-.29.56-.18.37-.27.58-.15.32c-.09.19-.17.38-.25.56l-.12.28c-.09.2-.17.4-.25.59a1.54,1.54,0,0,0-.08.19c-.21.5-.4,1-.56,1.37l-.21.51a4.89,4.89,0,0,1-.19.46c-.08.2-.19.49-.31.85q4.22.36,8.57.47c7,.15,13.55.11,19.8-.11l.15-.11.24-.16a3.28,3.28,0,0,1,.31-.2l.25-.16.34-.19.27-.14c.12-.06.24-.13.36-.18l.29-.14.38-.17.33-.13.4-.16.35-.12.43-.14.37-.11.46-.14.4-.1.49-.12.43-.09.52-.1.46-.08.54-.09.53-.07.84-.1.82-.08.5,0,.71-.05.54,0,.74,0h1.34l1.54,0,2.34,0,1.12,0,1.38,0,1.1-.06c.44,0,.89-.05,1.32-.09s.72-.06,1.08-.09l1.28-.14,1.05-.14,1.24-.18,1-.18,1.19-.23,1-.22,1.15-.29,1-.25,1.12-.34.92-.29c.37-.12.73-.25,1.09-.39s.59-.21.88-.33l1.05-.43.85-.37,1-.49.8-.4,1-.55.76-.43,1-.61c.23-.16.47-.3.71-.46l1-.69.64-.47c.34-.26.68-.54,1-.82.17-.14.34-.27.51-.42.49-.42,1-.85,1.43-1.3l0,0a31.95,31.95,0,0,0,8.08-13c.18-.53.33-1,.47-1.54.07-.25.13-.5.19-.74a28,28,0,0,0,.9-6.38v-11h0V124.2a201,201,0,0,1-24.71,6.59Z" style="fill: #cecece;opacity: 0.49"/>
            <path d="M245.29,136.06a149.49,149.49,0,0,1-27.57-3.13l-.52,6.43,27.64,2.23Z" style="fill: #cecece"/>
            <path d="M149.47,71.49c3.94,2.21,7.85,4.41,11.75,6.55l0-6.53Z" style="fill: #cecece;opacity: 0.49"/>
            <path d="M158.4,39.16a15.9,15.9,0,0,0-11.26-4.51,17.45,17.45,0,0,0-5.87,1,15.91,15.91,0,0,0-5,2.86,14.65,14.65,0,0,0-3.48,4.41,12.2,12.2,0,0,0-1.33,5.6,12.54,12.54,0,0,0,1.21,5.5A14.39,14.39,0,0,0,136,58.48a15.06,15.06,0,0,0,5,3,17.11,17.11,0,0,0,6.17,1.09,16.43,16.43,0,0,0,5.83-1,16.26,16.26,0,0,0,5-2.89,14.18,14.18,0,0,0,3.45-4.42,12.5,12.5,0,0,0,1.29-5.66,12.13,12.13,0,0,0-1.1-5A14.91,14.91,0,0,0,158.4,39.16Z" style="fill: #cecece;opacity: 0.49"/>
            <path d="M122.48,56.65a20.24,20.24,0,0,0-2.87-4.43,25.87,25.87,0,0,0-9.6-6.9,43.75,43.75,0,0,0-13.43-3.24,60.7,60.7,0,0,0-6.66-.23A296,296,0,0,1,122.48,56.65Z" style="fill: #cecece"/>
            <path d="M328.59,208.43a15.48,15.48,0,0,0,.11-1.56q0-.81,0-1.68c0-.32-.06-.63-.08-.95a243.6,243.6,0,0,1-23.22,8.23Z" style="fill: #cecece"/>
            <path d="M57.17,104.7c4.7,1,9.29,2.18,13.79,3.49l-.47-3,13.4-2.05a24.42,24.42,0,0,1,6.68-.17,15.63,15.63,0,0,1,5.48,1.65,11.17,11.17,0,0,1,3.93,3.53,12.89,12.89,0,0,1,2,5.45,11.51,11.51,0,0,1-.32,5.23c-.09.27-.2.53-.3.79,9.88,4.44,19.4,9.35,28.73,14.35.21-.28.44-.55.64-.83a32.07,32.07,0,0,1-3-6.81,43.89,43.89,0,0,1-1.87-13.21l0-12.9C109.48,94.25,92.37,89.29,74,87l-6,.92-.25-1.58a221.82,221.82,0,0,0-31.63-.64l2.44,15.91C44.6,102.36,50.8,103.36,57.17,104.7Z" style="fill: #cecece"/>
          </g>
        </g>
        <path d="M361.64,54.69c7.77-1,14.4-3.63,18.11-6.68a52.18,52.18,0,0,0-40.55,3C342.58,54.43,351.52,56.06,361.64,54.69Z" style="fill: #cecece;mix-blend-mode: multiply"/>
        <path d="M363,45.24a50.82,50.82,0,0,1,7.13.5L368,24.05,345.4,26.3l2.13,21.29A51.9,51.9,0,0,1,363,45.24Z" style="fill: url(#Dégradé_sans_nom_3)"/>
        <path d="M368,24.05l-2.26.22a16.56,16.56,0,0,0,.15-4.4,15.48,15.48,0,0,0-3.53-8.64,7.86,7.86,0,0,0-13.49,1.35,15.56,15.56,0,0,0-1.75,9.17,17,17,0,0,0,1,4.28l-2.7.27.7,7,2.15,3.51,2.45-6.76,3.75,6.14,2.42-6.64,3.68,6L363,28.85,366.76,35l1.8-4.94Zm-18.89-2.5a13.53,13.53,0,0,1,1.5-8A6.45,6.45,0,0,1,355.39,10l.51,0a6.62,6.62,0,0,1,4.91,2.55,13.47,13.47,0,0,1,3.05,7.52,15.07,15.07,0,0,1-.22,4.41l-13.48,1.34A14.9,14.9,0,0,1,349.07,21.55Z" style="fill: #fff"/>
        <path d="M451,236.94c-26.21-6.46-33.06-34.82-33.06-34.82s18,14.5,31.89,3.37c-20.26-7.59-27.42-27.4-27.42-27.4s13.72,10.19,24.1.65c-19.78-8.46-24.13-29.67-24.13-29.67a11.37,11.37,0,0,0,12.26,2.6c-12.82-8.33-15.05-21.81-15.41-27.4l0-2.51,0,.07v-.13a37.39,37.39,0,0,1-7.66,12.38s0,0,0,.06a32.88,32.88,0,0,1-17.54,10,11.4,11.4,0,0,0,12.38,2s-11.67,18.23-33.17,19c6.26,12.64,22.73,8.05,22.73,8.05S382.1,189.14,360.47,189c7.9,13.58,26,9.64,30.12,8.54-10.51,17.28-49,22.22-49,22.22s27.43,22.37,57.75,10C405.41,235,426.1,250.2,451,236.94Z" style="fill: url(#Dégradé_sans_nom_5)"/>
        <polygon points="423.31 99.68 425.06 106.08 431.33 108.27 425.78 111.91 425.64 118.55 420.46 114.4 414.1 116.31 416.45 110.11 412.67 104.65 419.3 104.97 423.31 99.68" style="fill: #fff"/>
        <path d="M423.31,99.68l1.75,6.4,6.27,2.19-5.55,3.64-.14,6.64-5.18-4.15-6.36,1.91,2.35-6.2-3.78-5.46,6.63.31,4-5.28m2.58-13.31-7.35,9.68-2.11,2.77L413,98.66l-12.15-.57,6.94,10,2,2.87-1.23,3.25-4.3,11.38,11.64-3.51,3.34-1,2.72,2.18,9.49,7.6.26-12.15.07-3.48,2.92-1.92,10.16-6.67-11.48-4L430,101.46l-.92-3.36-3.21-11.73Z"/>
        <path d="M397.62,237.6a62.82,62.82,0,0,1-9.63,2,51.81,51.81,0,0,1-10.72,11.68l14.8,2.75,8,1.49,14.8,2.75a51,51,0,0,1-5.55-13.63A62.38,62.38,0,0,1,397.62,237.6Z" style="fill: #c12012"/>
      </g>
    </g>
  </g>
</svg>
